<svg xmlns="http://www.w3.org/2000/svg" xmlns:xlink="http://www.w3.org/1999/xlink" width="350" zoomAndPan="magnify" viewBox="0 0 262.5 74.999997" height="100" preserveAspectRatio="xMidYMid meet" version="1.0"><defs><g/><clipPath id="b5327e3543"><path d="M 0 0.0703125 L 262 0.0703125 L 262 74.925781 L 0 74.925781 Z M 0 0.0703125 " clip-rule="nonzero"/></clipPath><clipPath id="cc4105119a"><path d="M 0.507812 0.0585938 L 67 0.0585938 L 67 64.496094 L 0.507812 64.496094 Z M 0.507812 0.0585938 " clip-rule="nonzero"/></clipPath><clipPath id="bcf22e1a4e"><rect x="0" width="178" y="0" height="28"/></clipPath><clipPath id="d09b481791"><path d="M 73 33 L 251.550781 33 L 251.550781 58 L 73 58 Z M 73 33 " clip-rule="nonzero"/></clipPath><clipPath id="a13a28ffd1"><rect x="0" width="179" y="0" height="25"/></clipPath><clipPath id="24c31bb5c5"><rect x="0" width="252" y="0" height="65"/></clipPath></defs><g clip-path="url(#b5327e3543)"><path fill="#ffffff" d="M 0 0.0703125 L 262 0.0703125 L 262 74.929688 L 0 74.929688 Z M 0 0.0703125 " fill-opacity="1" fill-rule="nonzero"/><path fill="#ffffff" d="M 0 0.0703125 L 262 0.0703125 L 262 74.929688 L 0 74.929688 Z M 0 0.0703125 " fill-opacity="1" fill-rule="nonzero"/></g><g transform="matrix(1, 0, 0, 1, 5, 6)"><g clip-path="url(#24c31bb5c5)"><g clip-path="url(#cc4105119a)"><path fill="#00afef" d="M 15.953125 41.359375 C 13.875 43.488281 10.644531 40.335938 12.71875 38.203125 C 14.796875 36.074219 18.027344 39.230469 15.953125 41.359375 Z M 63.113281 38.464844 C 62.21875 42.683594 60.414062 46.753906 57.707031 50.359375 C 59.519531 52.460938 56.839844 55.464844 54.550781 53.941406 C 52.207031 56.214844 49.582031 58.042969 46.796875 59.414062 C 47.742188 63.304688 42.234375 65.222656 40.507812 61.664062 C 38.363281 62.1875 36.144531 62.484375 33.894531 62.523438 C 32.734375 65.34375 28.558594 64.976562 27.878906 62.035156 C 24.871094 61.484375 21.832031 60.4375 19.171875 59.046875 C 16.582031 61.191406 12.796875 58.679688 13.824219 55.472656 C 10.515625 52.703125 7.859375 49.296875 5.980469 45.457031 C 2.578125 46.085938 0.824219 41.421875 3.839844 39.671875 C 3.015625 36.476562 2.703125 33.113281 2.972656 29.714844 C -0.554688 28.625 0.335938 23.160156 4.160156 23.382812 C 5.96875 17.324219 9.511719 12.234375 14.085938 8.511719 C 12.097656 4.628906 17.136719 0.769531 20.347656 3.898438 C 20.503906 4.046875 20.640625 4.210938 20.765625 4.378906 C 25.609375 2.179688 31.046875 1.238281 36.570312 1.84375 C 37.601562 -0.855469 41.660156 -0.0585938 41.601562 2.820312 C 43.058594 3.226562 44.496094 3.75 45.890625 4.386719 C 47.273438 2.914062 49.660156 4.25 49.210938 6.140625 C 50.003906 6.625 50.78125 7.160156 51.542969 7.726562 C 53.351562 9.078125 55.03125 10.652344 56.492188 12.355469 C 58.074219 11.753906 59.574219 13.652344 58.550781 15.050781 C 59.601562 16.601562 60.496094 18.230469 61.234375 19.914062 C 63.875 19.527344 65.171875 23.160156 62.816406 24.496094 C 63.460938 27.007812 63.78125 29.589844 63.777344 32.171875 C 67.398438 33.003906 66.828125 38.410156 63.113281 38.464844 Z M 55.515625 14.734375 C 54.3125 14.886719 53.105469 15.09375 51.914062 15.34375 C 51.96875 15.898438 51.902344 16.460938 51.722656 16.992188 C 54.425781 18.042969 57.054688 19.375 59.554688 20.972656 L 60.1875 20.339844 C 59.78125 19.414062 59.328125 18.507812 58.835938 17.628906 C 58.460938 16.972656 58.0625 16.328125 57.636719 15.699219 C 56.824219 15.945312 55.875 15.539062 55.515625 14.734375 Z M 30.800781 28.3125 C 34.347656 29.589844 37.78125 31.335938 41 33.550781 C 41.136719 33.433594 41.28125 33.335938 41.425781 33.253906 C 40.199219 29.871094 38.546875 26.601562 36.464844 23.550781 C 35.828125 23.828125 35.070312 23.765625 34.476562 23.351562 C 33.082031 24.417969 31.738281 25.574219 30.453125 26.824219 C 30.734375 27.277344 30.847656 27.800781 30.800781 28.3125 Z M 44.164062 14.789062 C 44.226562 14.515625 44.328125 14.242188 44.453125 13.984375 C 41.042969 11.808594 37.394531 10.152344 33.632812 9.011719 C 32.8125 10.113281 32.054688 11.242188 31.347656 12.386719 C 31.890625 12.765625 32.308594 13.316406 32.507812 14.003906 C 36.40625 13.765625 40.328125 14.027344 44.164062 14.789062 Z M 44.054688 15.878906 C 40.285156 15.117188 36.441406 14.855469 32.617188 15.09375 C 32.574219 15.605469 32.40625 16.105469 32.117188 16.554688 C 33.128906 17.578125 34.082031 18.636719 34.976562 19.730469 C 35.6875 19.484375 36.523438 19.636719 37.089844 20.207031 C 39.351562 18.78125 41.714844 17.574219 44.148438 16.582031 C 44.09375 16.355469 44.066406 16.117188 44.054688 15.878906 Z M 26.652344 15.878906 C 19.574219 17.300781 12.789062 20.472656 6.988281 25.382812 C 7.125 25.710938 7.207031 26.066406 7.226562 26.421875 C 13.527344 25.246094 20.011719 25.410156 26.277344 26.949219 C 26.382812 26.753906 26.515625 26.566406 26.679688 26.40625 C 27.488281 25.578125 28.75 25.457031 29.6875 26.050781 C 30.996094 24.777344 32.359375 23.597656 33.78125 22.515625 C 33.464844 21.816406 33.558594 20.972656 34.078125 20.363281 C 33.226562 19.328125 32.320312 18.324219 31.359375 17.351562 C 29.734375 18.53125 27.3125 17.769531 26.652344 15.878906 Z M 42.472656 32.921875 C 42.855469 32.882812 43.238281 32.929688 43.613281 33.050781 C 45.59375 28.757812 46.855469 24.21875 47.378906 19.613281 C 46.222656 19.433594 45.113281 18.664062 44.535156 17.605469 C 42.160156 18.574219 39.851562 19.753906 37.640625 21.152344 C 37.785156 21.730469 37.679688 22.351562 37.328125 22.859375 C 39.488281 26.027344 41.203125 29.410156 42.472656 32.921875 Z M 44.558594 33.609375 C 44.820312 33.847656 45.023438 34.125 45.171875 34.421875 C 47.183594 33.550781 49.136719 32.527344 51.019531 31.347656 C 50.792969 27.359375 50.03125 23.40625 48.730469 19.589844 C 48.648438 19.609375 48.566406 19.617188 48.484375 19.628906 C 47.945312 24.425781 46.636719 29.15625 44.558594 33.609375 Z M 45.171875 36.789062 C 46.878906 38.285156 48.449219 39.882812 49.878906 41.5625 C 50.054688 41.488281 50.242188 41.445312 50.433594 41.433594 C 50.945312 38.511719 51.152344 35.550781 51.070312 32.601562 C 49.253906 33.707031 47.375 34.671875 45.4375 35.5 C 45.457031 35.941406 45.367188 36.382812 45.171875 36.789062 Z M 52.070312 30.671875 C 53.910156 29.445312 55.671875 28.074219 57.335938 26.542969 C 55.421875 23.710938 53.148438 21.050781 50.582031 18.695312 C 50.328125 18.914062 50.054688 19.101562 49.765625 19.246094 C 51.027344 22.957031 51.796875 26.792969 52.070312 30.671875 Z M 58.140625 25.78125 C 58.722656 25.222656 59.292969 24.648438 59.847656 24.050781 C 59.339844 23.519531 59.050781 22.78125 59.160156 22.007812 C 56.730469 20.4375 54.183594 19.128906 51.554688 18.09375 C 54.050781 20.425781 56.265625 23.027344 58.140625 25.78125 Z M 48.195312 7.433594 C 48.425781 8.898438 48.589844 10.367188 48.675781 11.839844 C 49.980469 12.066406 51.171875 13.03125 51.660156 14.28125 C 52.898438 14.019531 54.140625 13.804688 55.390625 13.648438 C 55.433594 13.445312 55.515625 13.242188 55.628906 13.058594 C 53.648438 10.722656 51.285156 8.707031 48.671875 7.09375 C 48.523438 7.234375 48.367188 7.351562 48.195312 7.433594 Z M 41.125 4.273438 C 43.246094 6.710938 45.058594 9.316406 46.570312 12.046875 C 46.898438 11.921875 47.234375 11.839844 47.582031 11.804688 C 47.496094 10.402344 47.339844 9.011719 47.117188 7.625 C 46.03125 7.507812 45.234375 6.4375 45.414062 5.367188 C 44.117188 4.78125 42.761719 4.285156 41.355469 3.886719 C 41.285156 4.019531 41.210938 4.152344 41.125 4.273438 Z M 34.347656 8.089844 C 38.078125 9.257812 41.6875 10.921875 45.078125 13.078125 L 45.625 12.578125 C 44.152344 9.914062 42.386719 7.378906 40.328125 5.011719 C 39.320312 5.601562 38.117188 5.390625 37.316406 4.703125 Z M 21.296875 5.363281 C 21.378906 5.582031 21.433594 5.808594 21.476562 6.042969 C 25.429688 6.09375 29.382812 6.664062 33.222656 7.757812 L 36.632812 3.828125 C 36.507812 3.554688 36.429688 3.257812 36.40625 2.9375 C 31.261719 2.402344 26.0625 3.214844 21.296875 5.363281 Z M 21.15625 8.410156 C 23.371094 9.582031 25.511719 10.949219 27.546875 12.519531 C 28.359375 11.820312 29.417969 11.660156 30.355469 11.921875 C 31.023438 10.820312 31.738281 9.746094 32.511719 8.695312 C 28.914062 7.707031 25.214844 7.1875 21.511719 7.136719 C 21.46875 7.570312 21.347656 8 21.15625 8.410156 Z M 5.265625 23.644531 L 6.394531 24.449219 C 12.328125 19.460938 19.261719 16.242188 26.476562 14.800781 C 26.488281 14.304688 26.617188 13.808594 26.859375 13.367188 C 24.855469 11.820312 22.742188 10.472656 20.550781 9.328125 C 19.027344 11.054688 16.335938 11.105469 14.742188 9.4375 C 10.261719 13.125 6.863281 18.316406 5.265625 23.644531 Z M 26.472656 29.519531 C 26.140625 29.074219 25.984375 28.539062 25.992188 28.003906 C 19.777344 26.480469 13.335938 26.347656 7.089844 27.554688 C 6.679688 28.945312 5.394531 29.800781 4.0625 29.851562 C 3.8125 33.078125 4.101562 36.265625 4.875 39.300781 C 8.242188 38.71875 9.976562 43.300781 7.007812 45.070312 C 8.777344 48.65625 11.261719 51.855469 14.335938 54.472656 C 14.800781 53.835938 15.492188 53.359375 16.347656 53.1875 C 17.3125 44.714844 20.683594 36.457031 26.472656 29.519531 Z M 20.183594 55.34375 C 28.632812 51.9375 36.191406 45.617188 41.089844 37.730469 C 40.070312 36.933594 39.78125 35.527344 40.328125 34.417969 C 37.203125 32.277344 33.882812 30.589844 30.449219 29.351562 C 29.789062 30.417969 28.382812 30.78125 27.300781 30.230469 C 21.695312 36.953125 18.417969 44.941406 17.445312 53.144531 C 18.660156 53.296875 19.773438 54.179688 20.183594 55.34375 Z M 42.921875 38.296875 C 42.636719 38.3125 42.351562 38.289062 42.078125 38.214844 C 37.019531 46.40625 29.167969 52.949219 20.382812 56.441406 C 20.390625 57.097656 20.214844 57.691406 19.90625 58.191406 C 22.332031 59.4375 25.085938 60.382812 27.8125 60.90625 C 28.320312 56.960938 34.261719 57.441406 34.121094 61.425781 C 36.1875 61.367188 38.222656 61.09375 40.199219 60.617188 C 40.007812 58.867188 41.238281 57.070312 43.199219 56.871094 C 44.425781 50.730469 44.328125 44.394531 42.921875 38.296875 Z M 44.5 57 C 46.886719 53.164062 48.617188 49.039062 49.710938 44.789062 C 48.816406 44.308594 48.511719 43.121094 49.042969 42.273438 C 47.660156 40.644531 46.148438 39.101562 44.496094 37.660156 C 44.332031 37.800781 44.160156 37.917969 43.972656 38.015625 C 45.414062 44.230469 45.53125 50.699219 44.304688 56.953125 C 44.367188 56.960938 44.4375 56.976562 44.5 57 Z M 54.34375 50.082031 C 53.398438 48.300781 52.320312 46.570312 51.117188 44.910156 C 51.007812 44.945312 50.898438 44.976562 50.785156 44.988281 C 49.683594 49.335938 47.914062 53.558594 45.488281 57.488281 L 46.339844 58.382812 C 49.070312 57.03125 51.582031 55.257812 53.78125 53.121094 C 53.222656 52.132812 53.433594 50.832031 54.34375 50.082031 Z M 61.992188 38.277344 C 59.816406 37.5 59.160156 34.542969 60.914062 32.933594 C 60.074219 31.074219 59.078125 29.242188 57.945312 27.472656 C 56.113281 29.136719 54.171875 30.625 52.140625 31.941406 C 52.28125 35.195312 52.066406 38.46875 51.496094 41.703125 C 52.375 42.242188 52.605469 43.453125 52.003906 44.273438 C 53.242188 45.980469 54.351562 47.761719 55.324219 49.597656 C 55.804688 49.480469 56.316406 49.523438 56.78125 49.710938 C 59.230469 46.445312 61.089844 42.433594 61.992188 38.277344 Z M 62.65625 32.121094 C 62.65625 29.625 62.339844 27.179688 61.734375 24.816406 C 61.398438 24.835938 61.066406 24.78125 60.769531 24.667969 C 60.121094 25.375 59.445312 26.054688 58.757812 26.710938 C 59.933594 28.53125 60.96875 30.417969 61.847656 32.339844 C 62.109375 32.230469 62.382812 32.15625 62.65625 32.121094 Z M 57.140625 40.398438 C 55.636719 39.980469 55.003906 42.277344 56.507812 42.695312 C 58.007812 43.117188 58.648438 40.820312 57.140625 40.398438 Z M 34.449219 39.015625 C 36.390625 39.324219 36.863281 36.363281 34.917969 36.054688 C 32.976562 35.75 32.507812 38.707031 34.449219 39.015625 Z M 34.714844 51.492188 C 32.257812 50.8125 31.214844 54.5625 33.679688 55.246094 C 36.140625 55.925781 37.175781 52.175781 34.714844 51.492188 Z M 23.167969 19.589844 C 21.097656 19.015625 20.21875 22.175781 22.296875 22.753906 C 24.367188 23.324219 25.238281 20.160156 23.167969 19.589844 Z M 23.167969 19.589844 " fill-opacity="1" fill-rule="nonzero"/></g><g transform="matrix(1, 0, 0, 1, 71, 5)"><g clip-path="url(#bcf22e1a4e)"><g fill="#00afef" fill-opacity="1"><g transform="translate(1.008326, 21.645815)"><g><path d="M 13.84375 -18.5 L 18.203125 -18.5 L 11.234375 0 L 7.453125 0 L 0.21875 -18.5 L 4.625 -18.5 L 9.296875 -5.421875 Z M 13.84375 -18.5 "/></g></g></g><g fill="#00afef" fill-opacity="1"><g transform="translate(19.547551, 21.645815)"><g><path d="M 1.84375 -16.171875 L 1.84375 -19.765625 L 5.703125 -19.765625 L 5.703125 -16.171875 Z M 1.84375 0 L 1.84375 -14.265625 L 5.703125 -14.265625 L 5.703125 0 Z M 1.84375 0 "/></g></g></g><g fill="#00afef" fill-opacity="1"><g transform="translate(27.100574, 21.645815)"><g><path d="M 6.921875 0.390625 C 5.722656 0.390625 4.675781 0.179688 3.78125 -0.234375 C 2.882812 -0.660156 2.179688 -1.253906 1.671875 -2.015625 C 1.171875 -2.785156 0.921875 -3.679688 0.921875 -4.703125 L 4.671875 -4.703125 C 4.691406 -4.066406 4.921875 -3.585938 5.359375 -3.265625 C 5.804688 -2.953125 6.367188 -2.796875 7.046875 -2.796875 C 7.597656 -2.796875 8.078125 -2.914062 8.484375 -3.15625 C 8.890625 -3.394531 9.09375 -3.753906 9.09375 -4.234375 C 9.09375 -4.722656 8.820312 -5.066406 8.28125 -5.265625 C 7.75 -5.472656 7.101562 -5.640625 6.34375 -5.765625 C 5.78125 -5.847656 5.191406 -5.96875 4.578125 -6.125 C 3.972656 -6.289062 3.414062 -6.519531 2.90625 -6.8125 C 2.394531 -7.113281 1.972656 -7.523438 1.640625 -8.046875 C 1.316406 -8.578125 1.15625 -9.269531 1.15625 -10.125 C 1.15625 -11.019531 1.394531 -11.8125 1.875 -12.5 C 2.363281 -13.1875 3.035156 -13.71875 3.890625 -14.09375 C 4.742188 -14.476562 5.753906 -14.671875 6.921875 -14.671875 C 8.066406 -14.671875 9.066406 -14.46875 9.921875 -14.0625 C 10.773438 -13.664062 11.4375 -13.109375 11.90625 -12.390625 C 12.382812 -11.679688 12.625 -10.851562 12.625 -9.90625 L 8.953125 -9.90625 C 8.953125 -10.46875 8.765625 -10.890625 8.390625 -11.171875 C 8.015625 -11.453125 7.488281 -11.59375 6.8125 -11.59375 C 6.21875 -11.59375 5.753906 -11.460938 5.421875 -11.203125 C 5.085938 -10.953125 4.921875 -10.625 4.921875 -10.21875 C 4.921875 -9.75 5.179688 -9.425781 5.703125 -9.25 C 6.234375 -9.070312 6.867188 -8.921875 7.609375 -8.796875 C 8.191406 -8.691406 8.789062 -8.5625 9.40625 -8.40625 C 10.019531 -8.257812 10.59375 -8.035156 11.125 -7.734375 C 11.65625 -7.441406 12.082031 -7.03125 12.40625 -6.5 C 12.726562 -5.96875 12.890625 -5.269531 12.890625 -4.40625 C 12.890625 -3.4375 12.644531 -2.59375 12.15625 -1.875 C 11.664062 -1.15625 10.96875 -0.597656 10.0625 -0.203125 C 9.164062 0.191406 8.117188 0.390625 6.921875 0.390625 Z M 6.921875 0.390625 "/></g></g></g><g fill="#00afef" fill-opacity="1"><g transform="translate(40.965362, 21.645815)"><g><path d="M 1.84375 -16.171875 L 1.84375 -19.765625 L 5.703125 -19.765625 L 5.703125 -16.171875 Z M 1.84375 0 L 1.84375 -14.265625 L 5.703125 -14.265625 L 5.703125 0 Z M 1.84375 0 "/></g></g></g><g fill="#00afef" fill-opacity="1"><g transform="translate(48.518384, 21.645815)"><g><path d="M 9.625 -14.671875 C 11.082031 -14.671875 12.375 -14.34375 13.5 -13.6875 C 14.625 -13.03125 15.507812 -12.132812 16.15625 -11 C 16.800781 -9.863281 17.125 -8.578125 17.125 -7.140625 C 17.125 -5.691406 16.800781 -4.398438 16.15625 -3.265625 C 15.507812 -2.128906 14.625 -1.234375 13.5 -0.578125 C 12.375 0.0664062 11.082031 0.390625 9.625 0.390625 C 8.757812 0.390625 7.945312 0.253906 7.1875 -0.015625 C 6.425781 -0.285156 5.75 -0.675781 5.15625 -1.1875 L 4.703125 0 L 1.84375 0 L 1.84375 -19.421875 L 5.703125 -19.421875 L 5.703125 -13.5 C 6.253906 -13.875 6.859375 -14.160156 7.515625 -14.359375 C 8.179688 -14.566406 8.882812 -14.671875 9.625 -14.671875 Z M 9.296875 -3.25 C 10.054688 -3.25 10.726562 -3.414062 11.3125 -3.75 C 11.894531 -4.082031 12.351562 -4.546875 12.6875 -5.140625 C 13.019531 -5.734375 13.1875 -6.398438 13.1875 -7.140625 C 13.1875 -7.878906 13.019531 -8.539062 12.6875 -9.125 C 12.351562 -9.71875 11.894531 -10.1875 11.3125 -10.53125 C 10.726562 -10.875 10.054688 -11.046875 9.296875 -11.046875 C 8.554688 -11.046875 7.890625 -10.875 7.296875 -10.53125 C 6.710938 -10.1875 6.253906 -9.71875 5.921875 -9.125 C 5.585938 -8.539062 5.421875 -7.878906 5.421875 -7.140625 C 5.421875 -6.398438 5.585938 -5.738281 5.921875 -5.15625 C 6.253906 -4.570312 6.710938 -4.109375 7.296875 -3.765625 C 7.890625 -3.421875 8.554688 -3.25 9.296875 -3.25 Z M 9.296875 -3.25 "/></g></g></g><g fill="#00afef" fill-opacity="1"><g transform="translate(66.555825, 21.645815)"><g><path d="M 1.84375 -16.171875 L 1.84375 -19.765625 L 5.703125 -19.765625 L 5.703125 -16.171875 Z M 1.84375 0 L 1.84375 -14.265625 L 5.703125 -14.265625 L 5.703125 0 Z M 1.84375 0 "/></g></g></g><g fill="#00afef" fill-opacity="1"><g transform="translate(74.108848, 21.645815)"><g><path d="M 1.84375 0 L 1.84375 -19.421875 L 5.703125 -19.421875 L 5.703125 0 Z M 1.84375 0 "/></g></g></g><g fill="#00afef" fill-opacity="1"><g transform="translate(81.66187, 21.645815)"><g><path d="M 1.84375 -16.171875 L 1.84375 -19.765625 L 5.703125 -19.765625 L 5.703125 -16.171875 Z M 1.84375 0 L 1.84375 -14.265625 L 5.703125 -14.265625 L 5.703125 0 Z M 1.84375 0 "/></g></g></g><g fill="#00afef" fill-opacity="1"><g transform="translate(89.214893, 21.645815)"><g><path d="M 8.828125 -3.4375 L 10.5625 -3.4375 L 10.5625 0 L 7.84375 0 C 6.28125 0 5.046875 -0.453125 4.140625 -1.359375 C 3.234375 -2.265625 2.78125 -3.507812 2.78125 -5.09375 L 2.78125 -11.171875 L 0.1875 -11.171875 L 0.1875 -12 L 5.84375 -18 L 6.546875 -18 L 6.546875 -14.265625 L 10.484375 -14.265625 L 10.484375 -11.171875 L 6.625 -11.171875 L 6.625 -5.59375 C 6.625 -4.914062 6.8125 -4.382812 7.1875 -4 C 7.570312 -3.625 8.117188 -3.4375 8.828125 -3.4375 Z M 8.828125 -3.4375 "/></g></g></g><g fill="#00afef" fill-opacity="1"><g transform="translate(100.570831, 21.645815)"><g><path d="M 11.703125 -14.265625 L 15.828125 -14.265625 L 9.59375 -0.1875 C 9.03125 1.101562 8.457031 2.140625 7.875 2.921875 C 7.289062 3.703125 6.628906 4.269531 5.890625 4.625 C 5.148438 4.976562 4.242188 5.15625 3.171875 5.15625 L 1.578125 5.15625 L 1.578125 1.671875 L 2.9375 1.671875 C 3.550781 1.671875 4.035156 1.597656 4.390625 1.453125 C 4.753906 1.304688 5.0625 1.046875 5.3125 0.671875 C 5.570312 0.296875 5.851562 -0.253906 6.15625 -0.984375 L 6.203125 -1.078125 L 0.15625 -14.265625 L 4.359375 -14.265625 L 8.171875 -5.5 Z M 11.703125 -14.265625 "/></g></g></g><g fill="#00afef" fill-opacity="1"><g transform="translate(116.469136, 21.645815)"><g/></g></g><g fill="#00afef" fill-opacity="1"><g transform="translate(122.780925, 21.645815)"><g><path d="M 6.125 -3.71875 L 13.203125 -3.71875 L 13.203125 0 L 2.109375 0 L 2.109375 -18.5 L 6.125 -18.5 Z M 6.125 -3.71875 "/></g></g></g><g fill="#00afef" fill-opacity="1"><g transform="translate(136.566498, 21.645815)"><g><path d="M 1.84375 -16.171875 L 1.84375 -19.765625 L 5.703125 -19.765625 L 5.703125 -16.171875 Z M 1.84375 0 L 1.84375 -14.265625 L 5.703125 -14.265625 L 5.703125 0 Z M 1.84375 0 "/></g></g></g><g fill="#00afef" fill-opacity="1"><g transform="translate(144.119521, 21.645815)"><g><path d="M 11.203125 -14.265625 L 15.21875 -14.265625 L 9.53125 0 L 5.96875 0 L 0.1875 -14.265625 L 4.28125 -14.265625 L 7.796875 -4.703125 Z M 11.203125 -14.265625 "/></g></g></g><g fill="#00afef" fill-opacity="1"><g transform="translate(159.54247, 21.645815)"><g><path d="M 15.6875 -7.1875 C 15.6875 -6.8125 15.660156 -6.429688 15.609375 -6.046875 L 4.828125 -6.046875 C 4.992188 -5.078125 5.382812 -4.332031 6 -3.8125 C 6.613281 -3.289062 7.390625 -3.03125 8.328125 -3.03125 C 8.992188 -3.03125 9.585938 -3.175781 10.109375 -3.46875 C 10.640625 -3.757812 11.046875 -4.160156 11.328125 -4.671875 L 15.40625 -4.671875 C 14.875 -3.117188 13.972656 -1.882812 12.703125 -0.96875 C 11.441406 -0.0625 9.984375 0.390625 8.328125 0.390625 C 6.910156 0.390625 5.644531 0.0625 4.53125 -0.59375 C 3.414062 -1.25 2.535156 -2.144531 1.890625 -3.28125 C 1.242188 -4.425781 0.921875 -5.710938 0.921875 -7.140625 C 0.921875 -8.566406 1.242188 -9.847656 1.890625 -10.984375 C 2.535156 -12.117188 3.414062 -13.015625 4.53125 -13.671875 C 5.644531 -14.335938 6.910156 -14.671875 8.328125 -14.671875 C 9.785156 -14.671875 11.066406 -14.328125 12.171875 -13.640625 C 13.285156 -12.960938 14.148438 -12.0625 14.765625 -10.9375 C 15.378906 -9.8125 15.6875 -8.5625 15.6875 -7.1875 Z M 8.328125 -11.390625 C 7.460938 -11.390625 6.734375 -11.148438 6.140625 -10.671875 C 5.554688 -10.203125 5.15625 -9.539062 4.9375 -8.6875 L 11.84375 -8.6875 C 11.269531 -10.488281 10.097656 -11.390625 8.328125 -11.390625 Z M 8.328125 -11.390625 "/></g></g></g></g></g><g clip-path="url(#d09b481791)"><g transform="matrix(1, 0, 0, 1, 73, 33)"><g clip-path="url(#a13a28ffd1)"><g fill="#545454" fill-opacity="1"><g transform="translate(1.396975, 18.045343)"><g><path d="M 0.140625 0 L 4.640625 -11.328125 L 7.171875 -11.328125 L 11.65625 0 L 8.90625 0 L 8.15625 -1.953125 L 3.65625 -1.953125 L 2.890625 0 Z M 4.3125 -3.984375 L 7.5 -3.984375 L 5.90625 -8.125 Z M 4.3125 -3.984375 "/></g></g></g><g fill="#545454" fill-opacity="1"><g transform="translate(16.212119, 18.045343)"><g><path d="M 1.359375 0 L 1.359375 -11.328125 L 3.9375 -11.328125 L 3.9375 0 Z M 1.359375 0 "/></g></g></g><g fill="#545454" fill-opacity="1"><g transform="translate(24.509237, 18.045343)"><g><path d="M 6.734375 0.21875 C 5.554688 0.21875 4.507812 -0.03125 3.59375 -0.53125 C 2.6875 -1.03125 1.976562 -1.722656 1.46875 -2.609375 C 0.957031 -3.492188 0.703125 -4.507812 0.703125 -5.65625 C 0.703125 -6.8125 0.957031 -7.832031 1.46875 -8.71875 C 1.976562 -9.601562 2.6875 -10.296875 3.59375 -10.796875 C 4.507812 -11.296875 5.554688 -11.546875 6.734375 -11.546875 C 7.910156 -11.546875 8.953125 -11.296875 9.859375 -10.796875 C 10.765625 -10.296875 11.476562 -9.601562 12 -8.71875 C 12.519531 -7.832031 12.78125 -6.8125 12.78125 -5.65625 C 12.78125 -4.507812 12.519531 -3.492188 12 -2.609375 C 11.476562 -1.722656 10.765625 -1.03125 9.859375 -0.53125 C 8.953125 -0.03125 7.910156 0.21875 6.734375 0.21875 Z M 3.3125 -5.65625 C 3.3125 -4.976562 3.457031 -4.378906 3.75 -3.859375 C 4.039062 -3.347656 4.441406 -2.945312 4.953125 -2.65625 C 5.460938 -2.363281 6.054688 -2.21875 6.734375 -2.21875 C 7.410156 -2.21875 8.003906 -2.363281 8.515625 -2.65625 C 9.023438 -2.945312 9.421875 -3.347656 9.703125 -3.859375 C 9.992188 -4.378906 10.140625 -4.976562 10.140625 -5.65625 C 10.140625 -6.332031 9.992188 -6.929688 9.703125 -7.453125 C 9.421875 -7.972656 9.023438 -8.378906 8.515625 -8.671875 C 8.003906 -8.960938 7.410156 -9.109375 6.734375 -9.109375 C 6.054688 -9.109375 5.460938 -8.960938 4.953125 -8.671875 C 4.441406 -8.378906 4.039062 -7.972656 3.75 -7.453125 C 3.457031 -6.929688 3.3125 -6.332031 3.3125 -5.65625 Z M 3.3125 -5.65625 "/></g></g></g><g fill="#545454" fill-opacity="1"><g transform="translate(40.990278, 18.045343)"><g><path d="M 4.078125 0 L 4.078125 -8.90625 L 0.484375 -8.90625 L 0.484375 -11.328125 L 10.234375 -11.328125 L 10.234375 -8.90625 L 6.640625 -8.90625 L 6.640625 0 Z M 4.078125 0 "/></g></g></g><g fill="#545454" fill-opacity="1"><g transform="translate(54.721785, 18.045343)"><g/></g></g><g fill="#545454" fill-opacity="1"><g transform="translate(61.530921, 18.045343)"><g><path d="M 1.359375 0 L 1.359375 -11.328125 L 5.796875 -11.328125 C 6.710938 -11.328125 7.503906 -11.15625 8.171875 -10.8125 C 8.835938 -10.476562 9.351562 -10.003906 9.71875 -9.390625 C 10.09375 -8.773438 10.28125 -8.054688 10.28125 -7.234375 C 10.28125 -6.410156 10.09375 -5.691406 9.71875 -5.078125 C 9.351562 -4.460938 8.835938 -3.988281 8.171875 -3.65625 C 7.503906 -3.320312 6.710938 -3.15625 5.796875 -3.15625 L 3.9375 -3.15625 L 3.9375 0 Z M 3.90625 -5.375 L 5.578125 -5.375 C 6.242188 -5.375 6.757812 -5.53125 7.125 -5.84375 C 7.488281 -6.164062 7.671875 -6.625 7.671875 -7.21875 C 7.671875 -7.8125 7.488281 -8.269531 7.125 -8.59375 C 6.757812 -8.914062 6.242188 -9.078125 5.578125 -9.078125 L 3.90625 -9.078125 Z M 3.90625 -5.375 "/></g></g></g><g fill="#545454" fill-opacity="1"><g transform="translate(75.294778, 18.045343)"><g><path d="M 1.359375 0 L 1.359375 -11.328125 L 3.9375 -11.328125 L 3.9375 -2.40625 L 8.875 -2.40625 L 8.875 0 Z M 1.359375 0 "/></g></g></g><g fill="#545454" fill-opacity="1"><g transform="translate(87.619168, 18.045343)"><g><path d="M 0.140625 0 L 4.640625 -11.328125 L 7.171875 -11.328125 L 11.65625 0 L 8.90625 0 L 8.15625 -1.953125 L 3.65625 -1.953125 L 2.890625 0 Z M 4.3125 -3.984375 L 7.5 -3.984375 L 5.90625 -8.125 Z M 4.3125 -3.984375 "/></g></g></g><g fill="#545454" fill-opacity="1"><g transform="translate(102.434312, 18.045343)"><g><path d="M 4.078125 0 L 4.078125 -8.90625 L 0.484375 -8.90625 L 0.484375 -11.328125 L 10.234375 -11.328125 L 10.234375 -8.90625 L 6.640625 -8.90625 L 6.640625 0 Z M 4.078125 0 "/></g></g></g><g fill="#545454" fill-opacity="1"><g transform="translate(116.165819, 18.045343)"><g><path d="M 1.359375 0 L 1.359375 -11.328125 L 8.453125 -11.328125 L 8.453125 -8.984375 L 3.9375 -8.984375 L 3.9375 -6.15625 L 8.03125 -6.15625 L 8.03125 -3.890625 L 3.9375 -3.890625 L 3.9375 0 Z M 1.359375 0 "/></g></g></g><g fill="#545454" fill-opacity="1"><g transform="translate(128.344643, 18.045343)"><g><path d="M 6.734375 0.21875 C 5.554688 0.21875 4.507812 -0.03125 3.59375 -0.53125 C 2.6875 -1.03125 1.976562 -1.722656 1.46875 -2.609375 C 0.957031 -3.492188 0.703125 -4.507812 0.703125 -5.65625 C 0.703125 -6.8125 0.957031 -7.832031 1.46875 -8.71875 C 1.976562 -9.601562 2.6875 -10.296875 3.59375 -10.796875 C 4.507812 -11.296875 5.554688 -11.546875 6.734375 -11.546875 C 7.910156 -11.546875 8.953125 -11.296875 9.859375 -10.796875 C 10.765625 -10.296875 11.476562 -9.601562 12 -8.71875 C 12.519531 -7.832031 12.78125 -6.8125 12.78125 -5.65625 C 12.78125 -4.507812 12.519531 -3.492188 12 -2.609375 C 11.476562 -1.722656 10.765625 -1.03125 9.859375 -0.53125 C 8.953125 -0.03125 7.910156 0.21875 6.734375 0.21875 Z M 3.3125 -5.65625 C 3.3125 -4.976562 3.457031 -4.378906 3.75 -3.859375 C 4.039062 -3.347656 4.441406 -2.945312 4.953125 -2.65625 C 5.460938 -2.363281 6.054688 -2.21875 6.734375 -2.21875 C 7.410156 -2.21875 8.003906 -2.363281 8.515625 -2.65625 C 9.023438 -2.945312 9.421875 -3.347656 9.703125 -3.859375 C 9.992188 -4.378906 10.140625 -4.976562 10.140625 -5.65625 C 10.140625 -6.332031 9.992188 -6.929688 9.703125 -7.453125 C 9.421875 -7.972656 9.023438 -8.378906 8.515625 -8.671875 C 8.003906 -8.960938 7.410156 -9.109375 6.734375 -9.109375 C 6.054688 -9.109375 5.460938 -8.960938 4.953125 -8.671875 C 4.441406 -8.378906 4.039062 -7.972656 3.75 -7.453125 C 3.457031 -6.929688 3.3125 -6.332031 3.3125 -5.65625 Z M 3.3125 -5.65625 "/></g></g></g><g fill="#545454" fill-opacity="1"><g transform="translate(144.825685, 18.045343)"><g><path d="M 1.359375 0 L 1.359375 -11.328125 L 6.1875 -11.328125 C 7.050781 -11.328125 7.800781 -11.164062 8.4375 -10.84375 C 9.070312 -10.53125 9.5625 -10.082031 9.90625 -9.5 C 10.257812 -8.925781 10.4375 -8.234375 10.4375 -7.421875 C 10.4375 -6.585938 10.242188 -5.867188 9.859375 -5.265625 C 9.484375 -4.671875 8.957031 -4.226562 8.28125 -3.9375 L 10.625 0 L 7.65625 0 L 5.625 -3.53125 L 3.9375 -3.53125 L 3.9375 0 Z M 3.890625 -5.6875 L 5.859375 -5.6875 C 6.492188 -5.6875 6.976562 -5.832031 7.3125 -6.125 C 7.65625 -6.425781 7.828125 -6.851562 7.828125 -7.40625 C 7.828125 -7.957031 7.65625 -8.378906 7.3125 -8.671875 C 6.976562 -8.972656 6.492188 -9.125 5.859375 -9.125 L 3.890625 -9.125 Z M 3.890625 -5.6875 "/></g></g></g><g fill="#545454" fill-opacity="1"><g transform="translate(159.220318, 18.045343)"><g><path d="M 1.359375 0 L 1.359375 -11.328125 L 3.546875 -11.328125 L 7.5625 -5.453125 L 11.578125 -11.328125 L 13.75 -11.328125 L 13.75 0 L 11.1875 0 L 11.1875 -6.8125 L 8.4375 -2.796875 L 6.65625 -2.796875 L 3.90625 -6.828125 L 3.90625 0 Z M 1.359375 0 "/></g></g></g></g></g></g></g></g></svg>